solid box03
facet normal -0.0 -0.0 1.0
outer loop
vertex -10.895696282965 -28.3251736744012 2.49999999999998
vertex -10.9956962829649 27.5748263255988 2.49999999999998
vertex -10.9956962829649 -28.3251736744012 2.49999999999998
endloop
endfacet
facet normal -0.0 -0.0 1.0
outer loop
vertex -10.9956962829649 27.5748263255988 2.49999999999998
vertex -10.895696282965 -28.3251736744012 2.49999999999998
vertex -10.895696282965 27.5748263255988 2.49999999999998
endloop
endfacet
facet normal -0.0 -0.0 1.0
outer loop
vertex -10.895696282965 27.5748263255988 2.49999999999998
vertex -10.895696282965 -28.3251736744012 2.49999999999998
vertex -8.32440537552505 -0.307906389993728 2.49999999999998
endloop
endfacet
facet normal -0.0 -0.0 1.0
outer loop
vertex -8.32440537552505 -0.307906389993728 2.49999999999998
vertex -10.895696282965 -28.3251736744012 2.49999999999998
vertex -7.86312261453288 -2.47837553643213 2.49999999999998
endloop
endfacet
facet normal -0.0 -0.0 1.0
outer loop
vertex -7.86312261453288 -2.47837553643213 2.49999999999998
vertex -10.895696282965 -28.3251736744012 2.49999999999998
vertex -6.85579893056295 -4.45549897641834 2.49999999999998
endloop
endfacet
facet normal -0.0 -0.0 1.0
outer loop
vertex -6.85579893056295 -4.45549897641834 2.49999999999998
vertex -10.895696282965 -28.3251736744012 2.49999999999998
vertex 11.104303717035 -28.3251736744012 2.49999999999998
endloop
endfacet
facet normal -0.0 -0.0 1.0
outer loop
vertex -6.85579893056295 -4.45549897641834 2.49999999999998
vertex 11.104303717035 -28.3251736744012 2.49999999999998
vertex -5.3710817679967 -6.10453901486824 2.49999999999998
endloop
endfacet
facet normal -0.0 -0.0 1.0
outer loop
vertex -5.3710817679967 -6.10453901486824 2.49999999999998
vertex 11.104303717035 -28.3251736744012 2.49999999999998
vertex -3.51015214785191 -7.313116298329 2.49999999999998
endloop
endfacet
facet normal -0.0 -0.0 1.0
outer loop
vertex -3.51015214785191 -7.313116298329 2.49999999999998
vertex 11.104303717035 -28.3251736744012 2.49999999999998
vertex -1.39982934840984 -7.99886828220116 2.49999999999998
endloop
endfacet
facet normal -0.0 -0.0 1.0
outer loop
vertex -1.39982934840984 -7.99886828220116 2.49999999999998
vertex 11.104303717035 -28.3251736744012 2.49999999999998
vertex 0.816071619020857 -8.11506210204257 2.49999999999998
endloop
endfacet
facet normal -0.0 -0.0 1.0
outer loop
vertex 0.816071619020857 -8.11506210204257 2.49999999999998
vertex 11.104303717035 -28.3251736744012 2.49999999999998
vertex 2.98654076545926 -7.6537793410504 2.49999999999998
endloop
endfacet
facet normal -0.0 -0.0 1.0
outer loop
vertex 2.98654076545926 -7.6537793410504 2.49999999999998
vertex 11.104303717035 -28.3251736744012 2.49999999999998
vertex 4.96366420544547 -6.64645565708046 2.49999999999998
endloop
endfacet
facet normal -0.0 -0.0 1.0
outer loop
vertex 4.96366420544547 -6.64645565708046 2.49999999999998
vertex 11.104303717035 -28.3251736744012 2.49999999999998
vertex 6.61270424389537 -5.16173849451422 2.49999999999998
endloop
endfacet
facet normal -0.0 -0.0 1.0
outer loop
vertex 6.61270424389537 -5.16173849451422 2.49999999999998
vertex 11.104303717035 -28.3251736744012 2.49999999999998
vertex 7.82128152735613 -3.30080887436942 2.49999999999998
endloop
endfacet
facet normal -0.0 -0.0 1.0
outer loop
vertex 7.82128152735613 -3.30080887436942 2.49999999999998
vertex 11.104303717035 -28.3251736744012 2.49999999999998
vertex 8.5070335112283 -1.19048607492735 2.49999999999998
endloop
endfacet
facet normal -0.0 -0.0 1.0
outer loop
vertex 8.5070335112283 -1.19048607492735 2.49999999999998
vertex 11.104303717035 -28.3251736744012 2.49999999999998
vertex 8.6232273310697 1.02541489250334 2.49999999999998
endloop
endfacet
facet normal -0.0 -0.0 1.0
outer loop
vertex -10.895696282965 27.5748263255988 2.49999999999998
vertex -6.31388228835073 5.87924699702383 2.49999999999998
vertex 11.104303717035 27.5748263255988 2.49999999999998
endloop
endfacet
facet normal -0.0 -0.0 1.0
outer loop
vertex -6.31388228835073 5.87924699702383 2.49999999999998
vertex -10.895696282965 27.5748263255988 2.49999999999998
vertex -7.52245957181148 4.01831737687905 2.49999999999998
endloop
endfacet
facet normal -0.0 -0.0 1.0
outer loop
vertex -7.52245957181148 4.01831737687905 2.49999999999998
vertex -10.895696282965 27.5748263255988 2.49999999999998
vertex -8.20821155568365 1.90799457743696 2.49999999999998
endloop
endfacet
facet normal -0.0 -0.0 1.0
outer loop
vertex -8.20821155568365 1.90799457743696 2.49999999999998
vertex -10.895696282965 27.5748263255988 2.49999999999998
vertex -8.32440537552505 -0.307906389993728 2.49999999999998
endloop
endfacet
facet normal -0.0 -0.0 1.0
outer loop
vertex 11.104303717035 27.5748263255988 2.49999999999998
vertex -6.31388228835073 5.87924699702383 2.49999999999998
vertex -4.66484224990082 7.36396415959008 2.49999999999998
endloop
endfacet
facet normal -0.0 -0.0 1.0
outer loop
vertex 11.104303717035 27.5748263255988 2.49999999999998
vertex -4.66484224990082 7.36396415959008 2.49999999999998
vertex -2.68771880991463 8.37128784356002 2.49999999999998
endloop
endfacet
facet normal -0.0 -0.0 1.0
outer loop
vertex 11.104303717035 27.5748263255988 2.49999999999998
vertex -2.68771880991463 8.37128784356002 2.49999999999998
vertex -0.517249663476213 8.83257060455219 2.49999999999998
endloop
endfacet
facet normal -0.0 -0.0 1.0
outer loop
vertex 11.104303717035 27.5748263255988 2.49999999999998
vertex -0.517249663476213 8.83257060455219 2.49999999999998
vertex 1.69865130395448 8.71637678471078 2.49999999999998
endloop
endfacet
facet normal -0.0 -0.0 1.0
outer loop
vertex 11.104303717035 27.5748263255988 2.49999999999998
vertex 1.69865130395448 8.71637678471078 2.49999999999998
vertex 3.80897410339656 8.03062480083862 2.49999999999998
endloop
endfacet
facet normal -0.0 -0.0 1.0
outer loop
vertex 11.104303717035 27.5748263255988 2.49999999999998
vertex 3.80897410339656 8.03062480083862 2.49999999999998
vertex 5.66990372354135 6.82204751737786 2.49999999999998
endloop
endfacet
facet normal -0.0 -0.0 1.0
outer loop
vertex 11.104303717035 27.5748263255988 2.49999999999998
vertex 5.66990372354135 6.82204751737786 2.49999999999998
vertex 7.1546208861076 5.17300747892796 2.49999999999998
endloop
endfacet
facet normal -0.0 -0.0 1.0
outer loop
vertex 11.104303717035 27.5748263255988 2.49999999999998
vertex 7.1546208861076 5.17300747892796 2.49999999999998
vertex 8.16194457007754 3.19588403894175 2.49999999999998
endloop
endfacet
facet normal -0.0 -0.0 1.0
outer loop
vertex 11.104303717035 27.5748263255988 2.49999999999998
vertex 8.16194457007754 3.19588403894175 2.49999999999998
vertex 8.6232273310697 1.02541489250334 2.49999999999998
endloop
endfacet
facet normal -0.0 -0.0 1.0
outer loop
vertex 11.104303717035 27.5748263255988 2.49999999999998
vertex 8.6232273310697 1.02541489250334 2.49999999999998
vertex 11.104303717035 -28.3251736744012 2.49999999999998
endloop
endfacet
facet normal -0.0 -0.0 1.0
outer loop
vertex -13.395696282965 -30.8251736744012 -2.25562485014581e-14
vertex -8.32440537552505 -0.307906389993728 -2.22072360500647e-14
vertex -13.395696282965 29.9748263255988 -2.25562485014581e-14
endloop
endfacet
facet normal -0.0 -0.0 1.0
outer loop
vertex -8.32440537552505 -0.307906389993728 -2.22072360500647e-14
vertex -13.395696282965 -30.8251736744012 -2.25562485014581e-14
vertex -7.86312261453288 -2.47837553643213 -2.22072360500647e-14
endloop
endfacet
facet normal -0.0 -0.0 1.0
outer loop
vertex -7.86312261453288 -2.47837553643213 -2.22072360500647e-14
vertex -13.395696282965 -30.8251736744012 -2.25562485014581e-14
vertex -6.85579893056295 -4.45549897641834 -2.22072360500647e-14
endloop
endfacet
facet normal -0.0 -0.0 1.0
outer loop
vertex -6.85579893056295 -4.45549897641834 -2.22072360500647e-14
vertex -13.395696282965 -30.8251736744012 -2.25562485014581e-14
vertex 13.504303717035 -30.8251736744012 -2.25562485014581e-14
endloop
endfacet
facet normal -0.0 -0.0 1.0
outer loop
vertex -6.85579893056295 -4.45549897641834 -2.22072360500647e-14
vertex 13.504303717035 -30.8251736744012 -2.25562485014581e-14
vertex -5.3710817679967 -6.10453901486824 -2.22072360500647e-14
endloop
endfacet
facet normal -0.0 -0.0 1.0
outer loop
vertex -5.3710817679967 -6.10453901486824 -2.22072360500647e-14
vertex 13.504303717035 -30.8251736744012 -2.25562485014581e-14
vertex -3.51015214785191 -7.313116298329 -2.22072360500647e-14
endloop
endfacet
facet normal -0.0 -0.0 1.0
outer loop
vertex -3.51015214785191 -7.313116298329 -2.22072360500647e-14
vertex 13.504303717035 -30.8251736744012 -2.25562485014581e-14
vertex -1.39982934840984 -7.99886828220116 -2.22072360500647e-14
endloop
endfacet
facet normal -0.0 -0.0 1.0
outer loop
vertex -1.39982934840984 -7.99886828220116 -2.22072360500647e-14
vertex 13.504303717035 -30.8251736744012 -2.25562485014581e-14
vertex 0.816071619020857 -8.11506210204257 -2.22072360500647e-14
endloop
endfacet
facet normal -0.0 -0.0 1.0
outer loop
vertex 0.816071619020857 -8.11506210204257 -2.22072360500647e-14
vertex 13.504303717035 -30.8251736744012 -2.25562485014581e-14
vertex 2.98654076545926 -7.6537793410504 -2.22072360500647e-14
endloop
endfacet
facet normal -0.0 -0.0 1.0
outer loop
vertex 2.98654076545926 -7.6537793410504 -2.22072360500647e-14
vertex 13.504303717035 -30.8251736744012 -2.25562485014581e-14
vertex 4.96366420544547 -6.64645565708046 -2.22072360500647e-14
endloop
endfacet
facet normal -0.0 -0.0 1.0
outer loop
vertex 4.96366420544547 -6.64645565708046 -2.22072360500647e-14
vertex 13.504303717035 -30.8251736744012 -2.25562485014581e-14
vertex 6.61270424389537 -5.16173849451422 -2.22072360500647e-14
endloop
endfacet
facet normal -0.0 -0.0 1.0
outer loop
vertex 6.61270424389537 -5.16173849451422 -2.22072360500647e-14
vertex 13.504303717035 -30.8251736744012 -2.25562485014581e-14
vertex 7.82128152735613 -3.30080887436942 -2.22072360500647e-14
endloop
endfacet
facet normal -0.0 -0.0 1.0
outer loop
vertex 7.82128152735613 -3.30080887436942 -2.22072360500647e-14
vertex 13.504303717035 -30.8251736744012 -2.25562485014581e-14
vertex 8.5070335112283 -1.19048607492735 -2.22072360500647e-14
endloop
endfacet
facet normal -0.0 -0.0 1.0
outer loop
vertex 8.5070335112283 -1.19048607492735 -2.22072360500647e-14
vertex 13.504303717035 -30.8251736744012 -2.25562485014581e-14
vertex 8.6232273310697 1.02541489250334 -2.22072360500647e-14
endloop
endfacet
facet normal -0.0 -0.0 1.0
outer loop
vertex -13.395696282965 29.9748263255988 -2.25562485014581e-14
vertex -6.31388228835073 5.87924699702383 -2.22072360500647e-14
vertex 13.504303717035 29.9748263255988 -2.25562485014581e-14
endloop
endfacet
facet normal -0.0 -0.0 1.0
outer loop
vertex -6.31388228835073 5.87924699702383 -2.22072360500647e-14
vertex -13.395696282965 29.9748263255988 -2.25562485014581e-14
vertex -7.52245957181148 4.01831737687905 -2.22072360500647e-14
endloop
endfacet
facet normal -0.0 -0.0 1.0
outer loop
vertex -7.52245957181148 4.01831737687905 -2.22072360500647e-14
vertex -13.395696282965 29.9748263255988 -2.25562485014581e-14
vertex -8.20821155568365 1.90799457743696 -2.22072360500647e-14
endloop
endfacet
facet normal -0.0 -0.0 1.0
outer loop
vertex -8.20821155568365 1.90799457743696 -2.22072360500647e-14
vertex -13.395696282965 29.9748263255988 -2.25562485014581e-14
vertex -8.32440537552505 -0.307906389993728 -2.22072360500647e-14
endloop
endfacet
facet normal -0.0 -0.0 1.0
outer loop
vertex 13.504303717035 29.9748263255988 -2.25562485014581e-14
vertex -6.31388228835073 5.87924699702383 -2.22072360500647e-14
vertex -4.66484224990082 7.36396415959008 -2.22072360500647e-14
endloop
endfacet
facet normal -0.0 -0.0 1.0
outer loop
vertex 13.504303717035 29.9748263255988 -2.25562485014581e-14
vertex -4.66484224990082 7.36396415959008 -2.22072360500647e-14
vertex -2.68771880991463 8.37128784356002 -2.22072360500647e-14
endloop
endfacet
facet normal -0.0 -0.0 1.0
outer loop
vertex 13.504303717035 29.9748263255988 -2.25562485014581e-14
vertex -2.68771880991463 8.37128784356002 -2.22072360500647e-14
vertex -0.517249663476213 8.83257060455219 -2.22072360500647e-14
endloop
endfacet
facet normal -0.0 -0.0 1.0
outer loop
vertex 13.504303717035 29.9748263255988 -2.25562485014581e-14
vertex -0.517249663476213 8.83257060455219 -2.22072360500647e-14
vertex 1.69865130395448 8.71637678471078 -2.22072360500647e-14
endloop
endfacet
facet normal -0.0 -0.0 1.0
outer loop
vertex 13.504303717035 29.9748263255988 -2.25562485014581e-14
vertex 1.69865130395448 8.71637678471078 -2.22072360500647e-14
vertex 3.80897410339656 8.03062480083862 -2.22072360500647e-14
endloop
endfacet
facet normal -0.0 -0.0 1.0
outer loop
vertex 13.504303717035 29.9748263255988 -2.25562485014581e-14
vertex 3.80897410339656 8.03062480083862 -2.22072360500647e-14
vertex 5.66990372354135 6.82204751737786 -2.22072360500647e-14
endloop
endfacet
facet normal -0.0 -0.0 1.0
outer loop
vertex 13.504303717035 29.9748263255988 -2.25562485014581e-14
vertex 5.66990372354135 6.82204751737786 -2.22072360500647e-14
vertex 7.1546208861076 5.17300747892796 -2.22072360500647e-14
endloop
endfacet
facet normal -0.0 -0.0 1.0
outer loop
vertex 13.504303717035 29.9748263255988 -2.25562485014581e-14
vertex 7.1546208861076 5.17300747892796 -2.22072360500647e-14
vertex 8.16194457007754 3.19588403894175 -2.22072360500647e-14
endloop
endfacet
facet normal -0.0 -0.0 1.0
outer loop
vertex 13.504303717035 29.9748263255988 -2.25562485014581e-14
vertex 8.16194457007754 3.19588403894175 -2.22072360500647e-14
vertex 8.6232273310697 1.02541489250334 -2.22072360500647e-14
endloop
endfacet
facet normal -0.0 -0.0 1.0
outer loop
vertex 13.504303717035 29.9748263255988 -2.25562485014581e-14
vertex 8.6232273310697 1.02541489250334 -2.22072360500647e-14
vertex 13.504303717035 -30.8251736744012 -2.25562485014581e-14
endloop
endfacet
facet normal 0.0 0.0 1.0
outer loop
vertex -13.395696282965 -30.8251736744012 77.5
vertex -10.9956962829649 -28.3251736744012 77.5
vertex -13.395696282965 29.9748263255988 77.5
endloop
endfacet
facet normal 0.0 0.0 1.0
outer loop
vertex -10.9956962829649 -28.3251736744012 77.5
vertex -13.395696282965 -30.8251736744012 77.5
vertex 13.504303717035 -30.8251736744012 77.5
endloop
endfacet
facet normal 0.0 0.0 1.0
outer loop
vertex -10.9956962829649 -28.3251736744012 77.5
vertex 13.504303717035 -30.8251736744012 77.5
vertex -10.895696282965 -28.3251736744012 77.5
endloop
endfacet
facet normal 0.0 0.0 1.0
outer loop
vertex -10.895696282965 -28.3251736744012 77.5
vertex 13.504303717035 -30.8251736744012 77.5
vertex 11.104303717035 -28.3251736744012 77.5
endloop
endfacet
facet normal 0.0 0.0 1.0
outer loop
vertex 11.104303717035 -28.3251736744012 77.5
vertex 13.504303717035 -30.8251736744012 77.5
vertex 11.104303717035 27.5748263255988 77.5
endloop
endfacet
facet normal 0.0 0.0 1.0
outer loop
vertex -13.395696282965 29.9748263255988 77.5
vertex -10.9956962829649 27.5748263255988 77.5
vertex 13.504303717035 29.9748263255988 77.5
endloop
endfacet
facet normal 0.0 0.0 1.0
outer loop
vertex -10.9956962829649 27.5748263255988 77.5
vertex -13.395696282965 29.9748263255988 77.5
vertex -10.9956962829649 -28.3251736744012 77.5
endloop
endfacet
facet normal 0.0 0.0 1.0
outer loop
vertex 13.504303717035 29.9748263255988 77.5
vertex -10.9956962829649 27.5748263255988 77.5
vertex -10.895696282965 27.5748263255988 77.5
endloop
endfacet
facet normal 0.0 0.0 1.0
outer loop
vertex 13.504303717035 29.9748263255988 77.5
vertex -10.895696282965 27.5748263255988 77.5
vertex 11.104303717035 27.5748263255988 77.5
endloop
endfacet
facet normal 0.0 0.0 1.0
outer loop
vertex 13.504303717035 29.9748263255988 77.5
vertex 11.104303717035 27.5748263255988 77.5
vertex 13.504303717035 -30.8251736744012 77.5
endloop
endfacet
facet normal -1.0 0.0 0.0
outer loop
vertex -13.395696282965 29.9748263255988 77.5
vertex -13.395696282965 -30.8251736744012 -2.25562485014581e-14
vertex -13.395696282965 -30.8251736744012 77.5
endloop
endfacet
facet normal -1.0 0.0 0.0
outer loop
vertex -13.395696282965 -30.8251736744012 -2.25562485014581e-14
vertex -13.395696282965 29.9748263255988 77.5
vertex -13.395696282965 29.9748263255988 -2.25562485014581e-14
endloop
endfacet
facet normal -0.0 1.0 0.0
outer loop
vertex -13.395696282965 29.9748263255988 77.5
vertex 13.504303717035 29.9748263255988 -2.25562485014581e-14
vertex -13.395696282965 29.9748263255988 -2.25562485014581e-14
endloop
endfacet
facet normal -0.0 1.0 0.0
outer loop
vertex 13.504303717035 29.9748263255988 -2.25562485014581e-14
vertex -13.395696282965 29.9748263255988 77.5
vertex 13.504303717035 29.9748263255988 77.5
endloop
endfacet
facet normal 1.0 0.0 0.0
outer loop
vertex 13.504303717035 29.9748263255988 -2.25562485014581e-14
vertex 13.504303717035 -30.8251736744012 77.5
vertex 13.504303717035 -30.8251736744012 -2.25562485014581e-14
endloop
endfacet
facet normal 1.0 0.0 0.0
outer loop
vertex 13.504303717035 -30.8251736744012 77.5
vertex 13.504303717035 29.9748263255988 -2.25562485014581e-14
vertex 13.504303717035 29.9748263255988 77.5
endloop
endfacet
facet normal -0.0 -1.0 -0.0
outer loop
vertex 13.504303717035 -30.8251736744012 77.5
vertex -13.395696282965 -30.8251736744012 -2.25562485014581e-14
vertex 13.504303717035 -30.8251736744012 -2.25562485014581e-14
endloop
endfacet
facet normal -0.0 -1.0 -0.0
outer loop
vertex -13.395696282965 -30.8251736744012 -2.25562485014581e-14
vertex 13.504303717035 -30.8251736744012 77.5
vertex -13.395696282965 -30.8251736744012 77.5
endloop
endfacet
facet normal 0.0 -1.0 0.0
outer loop
vertex -10.895696282965 27.5748263255988 77.5
vertex -10.9956962829649 27.5748263255988 2.49999999999998
vertex -10.895696282965 27.5748263255988 2.49999999999998
endloop
endfacet
facet normal 0.0 -1.0 0.0
outer loop
vertex -10.9956962829649 27.5748263255988 2.49999999999998
vertex -10.895696282965 27.5748263255988 77.5
vertex -10.9956962829649 27.5748263255988 77.5
endloop
endfacet
facet normal 1.0 -0.0 -0.0
outer loop
vertex -10.9956962829649 27.5748263255988 2.49999999999998
vertex -10.9956962829649 -28.3251736744012 77.5
vertex -10.9956962829649 -28.3251736744012 2.49999999999998
endloop
endfacet
facet normal 1.0 -0.0 -0.0
outer loop
vertex -10.9956962829649 -28.3251736744012 77.5
vertex -10.9956962829649 27.5748263255988 2.49999999999998
vertex -10.9956962829649 27.5748263255988 77.5
endloop
endfacet
facet normal -0.0 1.0 -0.0
outer loop
vertex -10.9956962829649 -28.3251736744012 77.5
vertex -10.895696282965 -28.3251736744012 2.49999999999998
vertex -10.9956962829649 -28.3251736744012 2.49999999999998
endloop
endfacet
facet normal -0.0 1.0 -0.0
outer loop
vertex -10.895696282965 -28.3251736744012 2.49999999999998
vertex -10.9956962829649 -28.3251736744012 77.5
vertex -10.895696282965 -28.3251736744012 77.5
endloop
endfacet
facet normal -0.0 1.0 -0.0
outer loop
vertex -10.895696282965 -28.3251736744012 77.5
vertex 11.104303717035 -28.3251736744012 2.49999999999998
vertex -10.895696282965 -28.3251736744012 2.49999999999998
endloop
endfacet
facet normal -0.0 1.0 -0.0
outer loop
vertex 11.104303717035 -28.3251736744012 2.49999999999998
vertex -10.895696282965 -28.3251736744012 77.5
vertex 11.104303717035 -28.3251736744012 77.5
endloop
endfacet
facet normal -1.0 0.0 0.0
outer loop
vertex 11.104303717035 27.5748263255988 77.5
vertex 11.104303717035 -28.3251736744012 2.49999999999998
vertex 11.104303717035 -28.3251736744012 77.5
endloop
endfacet
facet normal -1.0 0.0 0.0
outer loop
vertex 11.104303717035 -28.3251736744012 2.49999999999998
vertex 11.104303717035 27.5748263255988 77.5
vertex 11.104303717035 27.5748263255988 2.49999999999998
endloop
endfacet
facet normal 0.0 -1.0 0.0
outer loop
vertex 11.104303717035 27.5748263255988 77.5
vertex -10.895696282965 27.5748263255988 2.49999999999998
vertex 11.104303717035 27.5748263255988 2.49999999999998
endloop
endfacet
facet normal 0.0 -1.0 0.0
outer loop
vertex -10.895696282965 27.5748263255988 2.49999999999998
vertex 11.104303717035 27.5748263255988 77.5
vertex -10.895696282965 27.5748263255988 77.5
endloop
endfacet
facet normal -0.649469734796356 -0.7603874430733 -1.49019789510916e-32
outer loop
vertex 5.66990372354135 6.82204751737786 2.49999999999998
vertex 3.80897410339656 8.03062480083862 -2.22072360500647e-14
vertex 5.66990372354135 6.82204751737786 -2.22072360500647e-14
endloop
endfacet
facet normal -0.430536838308734 -0.902573005833389 0.0
outer loop
vertex 3.80897410339656 8.03062480083862 -2.22072360500647e-14
vertex 5.66990372354135 6.82204751737786 2.49999999999998
vertex 3.80897410339656 8.03062480083862 2.49999999999998
endloop
endfacet
facet normal 0.7603874430733 -0.649469734796356 0.0
outer loop
vertex -6.31388228835073 5.87924699702383 -2.22072360500647e-14
vertex -7.52245957181148 4.01831737687905 2.49999999999998
vertex -7.52245957181148 4.01831737687905 -2.22072360500647e-14
endloop
endfacet
facet normal 0.90257300583339 -0.430536838308733 0.0
outer loop
vertex -7.52245957181148 4.01831737687905 2.49999999999998
vertex -6.31388228835073 5.87924699702383 -2.22072360500647e-14
vertex -6.31388228835073 5.87924699702383 2.49999999999998
endloop
endfacet
facet normal 0.430536838308735 0.902573005833389 -1.549244013344e-33
outer loop
vertex -3.51015214785191 -7.313116298329 2.49999999999998
vertex -1.39982934840984 -7.99886828220116 -2.22072360500647e-14
vertex -3.51015214785191 -7.313116298329 -2.22072360500647e-14
endloop
endfacet
facet normal 0.182263567786136 0.98324970981835 -1.549244013344e-33
outer loop
vertex -1.39982934840984 -7.99886828220116 -2.22072360500647e-14
vertex -3.51015214785191 -7.313116298329 2.49999999999998
vertex -1.39982934840984 -7.99886828220116 2.49999999999998
endloop
endfacet
facet normal -0.996919570976162 -0.0784306636762987 0.0
outer loop
vertex 8.6232273310697 1.02541489250334 2.49999999999998
vertex 8.5070335112283 -1.19048607492735 -2.22072360500647e-14
vertex 8.5070335112283 -1.19048607492735 2.49999999999998
endloop
endfacet
facet normal -0.983249709818349 0.182263567786137 0.0
outer loop
vertex 8.5070335112283 -1.19048607492735 -2.22072360500647e-14
vertex 8.6232273310697 1.02541489250334 2.49999999999998
vertex 8.6232273310697 1.02541489250334 -2.22072360500647e-14
endloop
endfacet
facet normal -0.182263567786136 -0.98324970981835 1.18221252912372e-18
outer loop
vertex 1.69865130395448 8.71637678471078 2.49999999999998
vertex -0.517249663476213 8.83257060455219 -2.22072360500647e-14
vertex 1.69865130395448 8.71637678471078 -2.22072360500647e-14
endloop
endfacet
facet normal 0.078430663676298 -0.996919570976162 1.18221252912372e-18
outer loop
vertex -0.517249663476213 8.83257060455219 -2.22072360500647e-14
vertex 1.69865130395448 8.71637678471078 2.49999999999998
vertex -0.517249663476213 8.83257060455219 2.49999999999998
endloop
endfacet
facet normal 0.333779975021994 -0.942651010859436 3.12637618001756e-33
outer loop
vertex -2.68771880991463 8.37128784356002 2.49999999999998
vertex -4.66484224990082 7.36396415959008 -2.22072360500647e-14
vertex -2.68771880991463 8.37128784356002 -2.22072360500647e-14
endloop
endfacet
facet normal 0.56638273266743 -0.82414234215709 0.0
outer loop
vertex -4.66484224990082 7.36396415959008 -2.22072360500647e-14
vertex -2.68771880991463 8.37128784356002 2.49999999999998
vertex -4.66484224990082 7.36396415959008 2.49999999999998
endloop
endfacet
facet normal 0.649469734796356 0.7603874430733 0.0
outer loop
vertex -5.3710817679967 -6.10453901486824 2.49999999999998
vertex -3.51015214785191 -7.313116298329 -2.22072360500647e-14
vertex -5.3710817679967 -6.10453901486824 -2.22072360500647e-14
endloop
endfacet
facet normal 0.430536838308735 0.902573005833389 -1.549244013344e-33
outer loop
vertex -3.51015214785191 -7.313116298329 -2.22072360500647e-14
vertex -5.3710817679967 -6.10453901486824 2.49999999999998
vertex -3.51015214785191 -7.313116298329 2.49999999999998
endloop
endfacet
facet normal 0.182263567786136 0.98324970981835 -1.549244013344e-33
outer loop
vertex -1.39982934840984 -7.99886828220116 2.49999999999998
vertex 0.816071619020857 -8.11506210204257 -2.22072360500647e-14
vertex -1.39982934840984 -7.99886828220116 -2.22072360500647e-14
endloop
endfacet
facet normal -0.078430663676299 0.996919570976162 -1.0421253933392e-33
outer loop
vertex 0.816071619020857 -8.11506210204257 -2.22072360500647e-14
vertex -1.39982934840984 -7.99886828220116 2.49999999999998
vertex 0.816071619020857 -8.11506210204257 2.49999999999998
endloop
endfacet
facet normal -0.902573005833389 0.430536838308734 0.0
outer loop
vertex 7.82128152735613 -3.30080887436942 2.49999999999998
vertex 6.61270424389537 -5.16173849451422 -2.22072360500647e-14
vertex 6.61270424389537 -5.16173849451422 2.49999999999998
endloop
endfacet
facet normal -0.7603874430733 0.649469734796356 -1.34170325698607e-32
outer loop
vertex 6.61270424389537 -5.16173849451422 -2.22072360500647e-14
vertex 7.82128152735613 -3.30080887436942 2.49999999999998
vertex 7.82128152735613 -3.30080887436942 -2.22072360500647e-14
endloop
endfacet
facet normal 0.996919570976162 0.0784306636762983 0.0
outer loop
vertex -8.32440537552505 -0.307906389993728 -2.22072360500647e-14
vertex -7.86312261453288 -2.47837553643213 2.49999999999998
vertex -7.86312261453288 -2.47837553643213 -2.22072360500647e-14
endloop
endfacet
facet normal 0.942651010859437 0.333779975021993 0.0
outer loop
vertex -7.86312261453288 -2.47837553643213 2.49999999999998
vertex -8.32440537552505 -0.307906389993728 -2.22072360500647e-14
vertex -8.32440537552505 -0.307906389993728 2.49999999999998
endloop
endfacet
facet normal 0.98324970981835 -0.182263567786136 0.0
outer loop
vertex -8.20821155568365 1.90799457743696 -2.22072360500647e-14
vertex -8.32440537552505 -0.307906389993728 2.49999999999998
vertex -8.32440537552505 -0.307906389993728 -2.22072360500647e-14
endloop
endfacet
facet normal 0.996919570976162 0.0784306636762983 0.0
outer loop
vertex -8.32440537552505 -0.307906389993728 2.49999999999998
vertex -8.20821155568365 1.90799457743696 -2.22072360500647e-14
vertex -8.20821155568365 1.90799457743696 2.49999999999998
endloop
endfacet
facet normal -0.983249709818349 0.182263567786137 0.0
outer loop
vertex 8.5070335112283 -1.19048607492735 2.49999999999998
vertex 7.82128152735613 -3.30080887436942 -2.22072360500647e-14
vertex 7.82128152735613 -3.30080887436942 2.49999999999998
endloop
endfacet
facet normal -0.902573005833389 0.430536838308734 0.0
outer loop
vertex 7.82128152735613 -3.30080887436942 -2.22072360500647e-14
vertex 8.5070335112283 -1.19048607492735 2.49999999999998
vertex 8.5070335112283 -1.19048607492735 -2.22072360500647e-14
endloop
endfacet
facet normal -0.942651010859437 -0.333779975021993 5.12450094892197e-18
outer loop
vertex 8.16194457007754 3.19588403894175 2.49999999999998
vertex 8.6232273310697 1.02541489250334 -2.22072360500647e-14
vertex 8.6232273310697 1.02541489250334 2.49999999999998
endloop
endfacet
facet normal -0.996919570976162 -0.0784306636762987 0.0
outer loop
vertex 8.6232273310697 1.02541489250334 -2.22072360500647e-14
vertex 8.16194457007754 3.19588403894175 2.49999999999998
vertex 8.16194457007754 3.19588403894175 -2.22072360500647e-14
endloop
endfacet
facet normal -0.078430663676299 0.996919570976162 -1.0421253933392e-33
outer loop
vertex 0.816071619020857 -8.11506210204257 2.49999999999998
vertex 2.98654076545926 -7.6537793410504 -2.22072360500647e-14
vertex 0.816071619020857 -8.11506210204257 -2.22072360500647e-14
endloop
endfacet
facet normal -0.333779975021993 0.942651010859437 -1.0421253933392e-33
outer loop
vertex 2.98654076545926 -7.6537793410504 -2.22072360500647e-14
vertex 0.816071619020857 -8.11506210204257 2.49999999999998
vertex 2.98654076545926 -7.6537793410504 2.49999999999998
endloop
endfacet
facet normal -0.824142342157091 -0.566382732667429 5.12450094892195e-18
outer loop
vertex 7.1546208861076 5.17300747892796 2.49999999999998
vertex 8.16194457007754 3.19588403894175 -2.22072360500647e-14
vertex 8.16194457007754 3.19588403894175 2.49999999999998
endloop
endfacet
facet normal -0.942651010859437 -0.333779975021993 5.12450094892197e-18
outer loop
vertex 8.16194457007754 3.19588403894175 -2.22072360500647e-14
vertex 7.1546208861076 5.17300747892796 2.49999999999998
vertex 7.1546208861076 5.17300747892796 -2.22072360500647e-14
endloop
endfacet
facet normal 0.942651010859437 0.333779975021993 0.0
outer loop
vertex -7.86312261453288 -2.47837553643213 -2.22072360500647e-14
vertex -6.85579893056295 -4.45549897641834 2.49999999999998
vertex -6.85579893056295 -4.45549897641834 -2.22072360500647e-14
endloop
endfacet
facet normal 0.82414234215709 0.56638273266743 0.0
outer loop
vertex -6.85579893056295 -4.45549897641834 2.49999999999998
vertex -7.86312261453288 -2.47837553643213 -2.22072360500647e-14
vertex -7.86312261453288 -2.47837553643213 2.49999999999998
endloop
endfacet
facet normal 0.90257300583339 -0.430536838308733 0.0
outer loop
vertex -7.52245957181148 4.01831737687905 -2.22072360500647e-14
vertex -8.20821155568365 1.90799457743696 2.49999999999998
vertex -8.20821155568365 1.90799457743696 -2.22072360500647e-14
endloop
endfacet
facet normal 0.98324970981835 -0.182263567786136 0.0
outer loop
vertex -8.20821155568365 1.90799457743696 2.49999999999998
vertex -7.52245957181148 4.01831737687905 -2.22072360500647e-14
vertex -7.52245957181148 4.01831737687905 2.49999999999998
endloop
endfacet
facet normal -0.649469734796356 -0.7603874430733 -1.49019789510916e-32
outer loop
vertex 5.66990372354135 6.82204751737786 2.49999999999998
vertex 7.1546208861076 5.17300747892796 -2.22072360500647e-14
vertex 7.1546208861076 5.17300747892796 2.49999999999998
endloop
endfacet
facet normal -0.824142342157091 -0.566382732667429 5.12450094892195e-18
outer loop
vertex 7.1546208861076 5.17300747892796 -2.22072360500647e-14
vertex 5.66990372354135 6.82204751737786 2.49999999999998
vertex 5.66990372354135 6.82204751737786 -2.22072360500647e-14
endloop
endfacet
facet normal 0.82414234215709 0.56638273266743 0.0
outer loop
vertex -6.85579893056295 -4.45549897641834 -2.22072360500647e-14
vertex -5.3710817679967 -6.10453901486824 2.49999999999998
vertex -5.3710817679967 -6.10453901486824 -2.22072360500647e-14
endloop
endfacet
facet normal 0.649469734796356 0.7603874430733 0.0
outer loop
vertex -5.3710817679967 -6.10453901486824 2.49999999999998
vertex -6.85579893056295 -4.45549897641834 -2.22072360500647e-14
vertex -6.85579893056295 -4.45549897641834 2.49999999999998
endloop
endfacet
facet normal -0.566382732667428 0.824142342157092 -1.34170325698607e-32
outer loop
vertex 4.96366420544547 -6.64645565708046 2.49999999999998
vertex 6.61270424389537 -5.16173849451422 -2.22072360500647e-14
vertex 4.96366420544547 -6.64645565708046 -2.22072360500647e-14
endloop
endfacet
facet normal -0.7603874430733 0.649469734796356 -1.34170325698607e-32
outer loop
vertex 6.61270424389537 -5.16173849451422 -2.22072360500647e-14
vertex 4.96366420544547 -6.64645565708046 2.49999999999998
vertex 6.61270424389537 -5.16173849451422 2.49999999999998
endloop
endfacet
facet normal 0.56638273266743 -0.82414234215709 0.0
outer loop
vertex -4.66484224990082 7.36396415959008 2.49999999999998
vertex -6.31388228835073 5.87924699702383 -2.22072360500647e-14
vertex -4.66484224990082 7.36396415959008 -2.22072360500647e-14
endloop
endfacet
facet normal 0.7603874430733 -0.649469734796356 0.0
outer loop
vertex -6.31388228835073 5.87924699702383 -2.22072360500647e-14
vertex -4.66484224990082 7.36396415959008 2.49999999999998
vertex -6.31388228835073 5.87924699702383 2.49999999999998
endloop
endfacet
facet normal -0.333779975021993 0.942651010859437 -1.0421253933392e-33
outer loop
vertex 2.98654076545926 -7.6537793410504 2.49999999999998
vertex 4.96366420544547 -6.64645565708046 -2.22072360500647e-14
vertex 2.98654076545926 -7.6537793410504 -2.22072360500647e-14
endloop
endfacet
facet normal -0.566382732667428 0.824142342157092 -1.34170325698607e-32
outer loop
vertex 4.96366420544547 -6.64645565708046 -2.22072360500647e-14
vertex 2.98654076545926 -7.6537793410504 2.49999999999998
vertex 4.96366420544547 -6.64645565708046 2.49999999999998
endloop
endfacet
facet normal 0.078430663676298 -0.996919570976162 1.18221252912372e-18
outer loop
vertex -0.517249663476213 8.83257060455219 2.49999999999998
vertex -2.68771880991463 8.37128784356002 -2.22072360500647e-14
vertex -0.517249663476213 8.83257060455219 -2.22072360500647e-14
endloop
endfacet
facet normal 0.333779975021994 -0.942651010859436 3.12637618001756e-33
outer loop
vertex -2.68771880991463 8.37128784356002 -2.22072360500647e-14
vertex -0.517249663476213 8.83257060455219 2.49999999999998
vertex -2.68771880991463 8.37128784356002 2.49999999999998
endloop
endfacet
facet normal -0.430536838308734 -0.902573005833389 0.0
outer loop
vertex 3.80897410339656 8.03062480083862 2.49999999999998
vertex 1.69865130395448 8.71637678471078 -2.22072360500647e-14
vertex 3.80897410339656 8.03062480083862 -2.22072360500647e-14
endloop
endfacet
facet normal -0.182263567786136 -0.98324970981835 1.18221252912372e-18
outer loop
vertex 1.69865130395448 8.71637678471078 -2.22072360500647e-14
vertex 3.80897410339656 8.03062480083862 2.49999999999998
vertex 1.69865130395448 8.71637678471078 2.49999999999998
endloop
endfacet
endsolid box03
