solid box03lid
facet normal -1.0 0.0 0.0
outer loop
vertex -13.395696282965 29.9748263255988 7.49999999999998
vertex -13.395696282965 -30.8251736744012 -2.25562485014581e-14
vertex -13.395696282965 -30.8251736744012 7.49999999999998
endloop
endfacet
facet normal -1.0 0.0 0.0
outer loop
vertex -13.395696282965 -30.8251736744012 -2.25562485014581e-14
vertex -13.395696282965 29.9748263255988 7.49999999999998
vertex -13.395696282965 29.9748263255988 -2.25562485014581e-14
endloop
endfacet
facet normal -0.0 1.0 0.0
outer loop
vertex -13.395696282965 29.9748263255988 7.49999999999998
vertex 13.504303717035 29.9748263255988 -2.25562485014581e-14
vertex -13.395696282965 29.9748263255988 -2.25562485014581e-14
endloop
endfacet
facet normal -0.0 1.0 0.0
outer loop
vertex 13.504303717035 29.9748263255988 -2.25562485014581e-14
vertex -13.395696282965 29.9748263255988 7.49999999999998
vertex 13.504303717035 29.9748263255988 7.49999999999998
endloop
endfacet
facet normal 1.0 0.0 0.0
outer loop
vertex 13.504303717035 29.9748263255988 -2.25562485014581e-14
vertex 13.504303717035 -30.8251736744012 7.49999999999998
vertex 13.504303717035 -30.8251736744012 -2.25562485014581e-14
endloop
endfacet
facet normal 1.0 0.0 0.0
outer loop
vertex 13.504303717035 -30.8251736744012 7.49999999999998
vertex 13.504303717035 29.9748263255988 -2.25562485014581e-14
vertex 13.504303717035 29.9748263255988 7.49999999999998
endloop
endfacet
facet normal -0.0 -1.0 -0.0
outer loop
vertex 13.504303717035 -30.8251736744012 7.49999999999998
vertex -13.395696282965 -30.8251736744012 -2.25562485014581e-14
vertex 13.504303717035 -30.8251736744012 -2.25562485014581e-14
endloop
endfacet
facet normal -0.0 -1.0 -0.0
outer loop
vertex -13.395696282965 -30.8251736744012 -2.25562485014581e-14
vertex 13.504303717035 -30.8251736744012 7.49999999999998
vertex -13.395696282965 -30.8251736744012 7.49999999999998
endloop
endfacet
facet normal -0.0 -0.0 1.0
outer loop
vertex 13.504303717035 -30.8251736744012 -2.25562485014581e-14
vertex -13.395696282965 29.9748263255988 -2.25562485014581e-14
vertex -13.395696282965 -30.8251736744012 -2.25562485014581e-14
endloop
endfacet
facet normal -0.0 -0.0 1.0
outer loop
vertex -13.395696282965 29.9748263255988 -2.25562485014581e-14
vertex 13.504303717035 -30.8251736744012 -2.25562485014581e-14
vertex 13.504303717035 29.9748263255988 -2.25562485014581e-14
endloop
endfacet
facet normal -0.0 -0.0 1.0
outer loop
vertex -13.395696282965 -30.8251736744012 7.49999999999998
vertex -10.7956962829649 -28.1251736744012 7.49999999999997
vertex -13.395696282965 29.9748263255988 7.49999999999998
endloop
endfacet
facet normal -0.0 -0.0 1.0
outer loop
vertex -10.7956962829649 -28.1251736744012 7.49999999999997
vertex -13.395696282965 -30.8251736744012 7.49999999999998
vertex 13.504303717035 -30.8251736744012 7.49999999999998
endloop
endfacet
facet normal -0.0 -0.0 1.0
outer loop
vertex -10.7956962829649 -28.1251736744012 7.49999999999997
vertex 13.504303717035 -30.8251736744012 7.49999999999998
vertex 10.904303717035 -28.1251736744012 7.49999999999997
endloop
endfacet
facet normal -0.0 -0.0 1.0
outer loop
vertex 10.904303717035 -28.1251736744012 7.49999999999997
vertex 13.504303717035 -30.8251736744012 7.49999999999998
vertex 10.904303717035 27.3748263255988 7.49999999999997
endloop
endfacet
facet normal -0.0 -0.0 1.0
outer loop
vertex -13.395696282965 29.9748263255988 7.49999999999998
vertex -10.7956962829649 27.3748263255988 7.49999999999997
vertex 13.504303717035 29.9748263255988 7.49999999999998
endloop
endfacet
facet normal -0.0 -0.0 1.0
outer loop
vertex -10.7956962829649 27.3748263255988 7.49999999999997
vertex -13.395696282965 29.9748263255988 7.49999999999998
vertex -10.7956962829649 -28.1251736744012 7.49999999999997
endloop
endfacet
facet normal -0.0 -0.0 1.0
outer loop
vertex 13.504303717035 29.9748263255988 7.49999999999998
vertex -10.7956962829649 27.3748263255988 7.49999999999997
vertex 10.904303717035 27.3748263255988 7.49999999999997
endloop
endfacet
facet normal -0.0 -0.0 1.0
outer loop
vertex 13.504303717035 29.9748263255988 7.49999999999998
vertex 10.904303717035 27.3748263255988 7.49999999999997
vertex 13.504303717035 -30.8251736744012 7.49999999999998
endloop
endfacet
facet normal -0.0 -0.0 1.0
outer loop
vertex -10.7956962829649 -28.1251736744012 11.5
vertex -9.12557437354347 -26.2286516874292 11.5
vertex -10.7956962829649 27.3748263255988 11.5
endloop
endfacet
facet normal -0.0 -0.0 1.0
outer loop
vertex -9.12557437354347 -26.2286516874292 11.5
vertex -10.7956962829649 -28.1251736744012 11.5
vertex 10.904303717035 -28.1251736744012 11.5
endloop
endfacet
facet normal -0.0 -0.0 1.0
outer loop
vertex -9.12557437354347 -26.2286516874292 11.5
vertex 10.904303717035 -28.1251736744012 11.5
vertex 8.77442562645653 -26.2286516874292 11.5
endloop
endfacet
facet normal -0.0 -0.0 1.0
outer loop
vertex 8.77442562645653 -26.2286516874292 11.5
vertex 10.904303717035 -28.1251736744012 11.5
vertex 8.77442562645653 25.1713483125708 11.5
endloop
endfacet
facet normal -0.0 -0.0 1.0
outer loop
vertex -10.7956962829649 27.3748263255988 11.5
vertex -9.12557437354347 25.1713483125708 11.5
vertex 10.904303717035 27.3748263255988 11.5
endloop
endfacet
facet normal -0.0 -0.0 1.0
outer loop
vertex -9.12557437354347 25.1713483125708 11.5
vertex -10.7956962829649 27.3748263255988 11.5
vertex -9.12557437354347 -26.2286516874292 11.5
endloop
endfacet
facet normal -0.0 -0.0 1.0
outer loop
vertex 10.904303717035 27.3748263255988 11.5
vertex -9.12557437354347 25.1713483125708 11.5
vertex 8.77442562645653 25.1713483125708 11.5
endloop
endfacet
facet normal -0.0 -0.0 1.0
outer loop
vertex 10.904303717035 27.3748263255988 11.5
vertex 8.77442562645653 25.1713483125708 11.5
vertex 10.904303717035 -28.1251736744012 11.5
endloop
endfacet
facet normal 0.0 1.0 0.0
outer loop
vertex -10.7956962829649 27.3748263255988 11.5
vertex 10.904303717035 27.3748263255988 7.49999999999997
vertex -10.7956962829649 27.3748263255988 7.49999999999997
endloop
endfacet
facet normal 0.0 1.0 0.0
outer loop
vertex 10.904303717035 27.3748263255988 7.49999999999997
vertex -10.7956962829649 27.3748263255988 11.5
vertex 10.904303717035 27.3748263255988 11.5
endloop
endfacet
facet normal 0.0 -1.0 0.0
outer loop
vertex 10.904303717035 -28.1251736744012 11.5
vertex -10.7956962829649 -28.1251736744012 7.49999999999997
vertex 10.904303717035 -28.1251736744012 7.49999999999997
endloop
endfacet
facet normal 0.0 -1.0 0.0
outer loop
vertex -10.7956962829649 -28.1251736744012 7.49999999999997
vertex 10.904303717035 -28.1251736744012 11.5
vertex -10.7956962829649 -28.1251736744012 11.5
endloop
endfacet
facet normal -1.0 0.0 0.0
outer loop
vertex -10.7956962829649 27.3748263255988 11.5
vertex -10.7956962829649 -28.1251736744012 7.49999999999997
vertex -10.7956962829649 -28.1251736744012 11.5
endloop
endfacet
facet normal -1.0 0.0 0.0
outer loop
vertex -10.7956962829649 -28.1251736744012 7.49999999999997
vertex -10.7956962829649 27.3748263255988 11.5
vertex -10.7956962829649 27.3748263255988 7.49999999999997
endloop
endfacet
facet normal 1.0 0.0 0.0
outer loop
vertex 10.904303717035 27.3748263255988 7.49999999999997
vertex 10.904303717035 -28.1251736744012 11.5
vertex 10.904303717035 -28.1251736744012 7.49999999999997
endloop
endfacet
facet normal 1.0 0.0 0.0
outer loop
vertex 10.904303717035 -28.1251736744012 11.5
vertex 10.904303717035 27.3748263255988 7.49999999999997
vertex 10.904303717035 27.3748263255988 11.5
endloop
endfacet
facet normal 0.0 0.0 1.0
outer loop
vertex 8.77442562645653 -26.2286516874292 2.59999999999997
vertex -9.12557437354347 25.1713483125708 2.59999999999997
vertex -9.12557437354347 -26.2286516874292 2.59999999999997
endloop
endfacet
facet normal 0.0 0.0 1.0
outer loop
vertex -9.12557437354347 25.1713483125708 2.59999999999997
vertex 8.77442562645653 -26.2286516874292 2.59999999999997
vertex 8.77442562645653 25.1713483125708 2.59999999999997
endloop
endfacet
facet normal -0.0 -1.0 -0.0
outer loop
vertex 8.77442562645653 25.1713483125708 11.5
vertex -9.12557437354347 25.1713483125708 2.59999999999997
vertex 8.77442562645653 25.1713483125708 2.59999999999997
endloop
endfacet
facet normal -0.0 -1.0 -0.0
outer loop
vertex -9.12557437354347 25.1713483125708 2.59999999999997
vertex 8.77442562645653 25.1713483125708 11.5
vertex -9.12557437354347 25.1713483125708 11.5
endloop
endfacet
facet normal 1.0 -2.74315805695321e-17 -0.0
outer loop
vertex -9.12557437354347 25.1713483125708 2.59999999999997
vertex -9.12557437354347 -26.2286516874292 11.5
vertex -9.12557437354347 -26.2286516874292 2.59999999999997
endloop
endfacet
facet normal 1.0 -2.74315805695321e-17 -0.0
outer loop
vertex -9.12557437354347 -26.2286516874292 11.5
vertex -9.12557437354347 25.1713483125708 2.59999999999997
vertex -9.12557437354347 25.1713483125708 11.5
endloop
endfacet
facet normal -0.0 1.0 -0.0
outer loop
vertex -9.12557437354347 -26.2286516874292 11.5
vertex 8.77442562645653 -26.2286516874292 2.59999999999997
vertex -9.12557437354347 -26.2286516874292 2.59999999999997
endloop
endfacet
facet normal -0.0 1.0 -0.0
outer loop
vertex 8.77442562645653 -26.2286516874292 2.59999999999997
vertex -9.12557437354347 -26.2286516874292 11.5
vertex 8.77442562645653 -26.2286516874292 11.5
endloop
endfacet
facet normal -1.0 2.74315805695321e-17 -0.0
outer loop
vertex 8.77442562645653 25.1713483125708 11.5
vertex 8.77442562645653 -26.2286516874292 2.59999999999997
vertex 8.77442562645653 -26.2286516874292 11.5
endloop
endfacet
facet normal -1.0 2.74315805695321e-17 -0.0
outer loop
vertex 8.77442562645653 -26.2286516874292 2.59999999999997
vertex 8.77442562645653 25.1713483125708 11.5
vertex 8.77442562645653 25.1713483125708 2.59999999999997
endloop
endfacet
endsolid box03lid
